<svg width="157" height="19" viewBox="0 0 157 19" fill="none" xmlns="http://www.w3.org/2000/svg">
<g style="mix-blend-mode: color-burn">
<path d="M0.0472302 18V0.545454H5.94496C7.30859 0.545454 8.42791 0.778409 9.30291 1.24432C10.1779 1.70454 10.8256 2.33807 11.2461 3.14489C11.6665 3.9517 11.8768 4.86932 11.8768 5.89773C11.8768 6.92614 11.6665 7.83807 11.2461 8.63352C10.8256 9.42898 10.1808 10.054 9.31143 10.5085C8.44212 10.9574 7.33132 11.1818 5.97905 11.1818H1.20632V9.27273H5.91087C6.84268 9.27273 7.59268 9.13636 8.16087 8.86364C8.73473 8.59091 9.1495 8.20455 9.40518 7.70455C9.66655 7.19886 9.79723 6.59659 9.79723 5.89773C9.79723 5.19886 9.66655 4.58807 9.40518 4.06534C9.14382 3.54261 8.72621 3.1392 8.15234 2.85511C7.57848 2.56534 6.81996 2.42045 5.87678 2.42045H2.16087V18H0.0472302ZM8.26314 10.1591L12.5586 18H10.104L5.87678 10.1591H8.26314ZM20.4741 18.2727C19.2127 18.2727 18.1246 17.9943 17.2099 17.4375C16.3008 16.875 15.5991 16.0909 15.1048 15.0852C14.6161 14.0739 14.3718 12.8977 14.3718 11.5568C14.3718 10.2159 14.6161 9.03409 15.1048 8.01136C15.5991 6.98295 16.2866 6.18182 17.1673 5.60795C18.0536 5.02841 19.0877 4.73864 20.2695 4.73864C20.9513 4.73864 21.6246 4.85227 22.2894 5.07954C22.9542 5.30682 23.5593 5.67614 24.1048 6.1875C24.6502 6.69318 25.0849 7.36364 25.4087 8.19886C25.7326 9.03409 25.8945 10.0625 25.8945 11.2841V12.1364H15.8036V10.3977H23.8491C23.8491 9.65909 23.7013 9 23.4059 8.42045C23.1161 7.84091 22.7013 7.38352 22.1616 7.0483C21.6275 6.71307 20.9968 6.54545 20.2695 6.54545C19.4684 6.54545 18.7752 6.74432 18.19 7.14205C17.6104 7.53409 17.1644 8.04545 16.8519 8.67614C16.5394 9.30682 16.3832 9.98295 16.3832 10.7045V11.8636C16.3832 12.8523 16.5536 13.6903 16.8945 14.3778C17.2411 15.0597 17.7212 15.5795 18.3349 15.9375C18.9485 16.2898 19.6616 16.4659 20.4741 16.4659C21.0025 16.4659 21.4798 16.392 21.9059 16.2443C22.3377 16.0909 22.7099 15.8636 23.0224 15.5625C23.3349 15.2557 23.5763 14.875 23.7468 14.4205L25.69 14.9659C25.4854 15.625 25.1417 16.2045 24.6587 16.7045C24.1758 17.1989 23.5792 17.5852 22.869 17.8636C22.1587 18.1364 21.3604 18.2727 20.4741 18.2727ZM38.2269 7.84091L36.4201 8.35227C36.3065 8.05114 36.1388 7.75852 35.9173 7.47443C35.7013 7.18466 35.4059 6.94602 35.0309 6.75852C34.6559 6.57102 34.1758 6.47727 33.5906 6.47727C32.7894 6.47727 32.1218 6.66193 31.5877 7.03125C31.0593 7.39489 30.7951 7.85795 30.7951 8.42045C30.7951 8.92045 30.9769 9.31534 31.3406 9.60511C31.7042 9.89489 32.2724 10.1364 33.0451 10.3295L34.9883 10.8068C36.1587 11.0909 37.0309 11.5256 37.6048 12.1108C38.1786 12.6903 38.4656 13.4375 38.4656 14.3523C38.4656 15.1023 38.2496 15.7727 37.8178 16.3636C37.3917 16.9545 36.7951 17.4205 36.0281 17.7614C35.261 18.1023 34.369 18.2727 33.3519 18.2727C32.0167 18.2727 30.9116 17.983 30.0366 17.4034C29.1616 16.8239 28.6076 15.9773 28.3746 14.8636L30.2837 14.3864C30.4656 15.0909 30.8093 15.6193 31.315 15.9716C31.8263 16.3239 32.494 16.5 33.3178 16.5C34.2553 16.5 34.9996 16.3011 35.5508 15.9034C36.1076 15.5 36.386 15.017 36.386 14.4545C36.386 14 36.2269 13.6193 35.9087 13.3125C35.5906 13 35.1019 12.767 34.4428 12.6136L32.261 12.1023C31.0621 11.8182 30.1815 11.3778 29.619 10.7812C29.0621 10.179 28.7837 9.42614 28.7837 8.52273C28.7837 7.78409 28.9911 7.13068 29.4059 6.5625C29.8263 5.99432 30.3974 5.5483 31.119 5.22443C31.8462 4.90057 32.6701 4.73864 33.5906 4.73864C34.886 4.73864 35.9031 5.02273 36.6417 5.59091C37.386 6.15909 37.9144 6.90909 38.2269 7.84091ZM46.9819 18.2727C45.7205 18.2727 44.6325 17.9943 43.7177 17.4375C42.8086 16.875 42.1069 16.0909 41.6126 15.0852C41.1239 14.0739 40.8796 12.8977 40.8796 11.5568C40.8796 10.2159 41.1239 9.03409 41.6126 8.01136C42.1069 6.98295 42.7944 6.18182 43.6751 5.60795C44.5614 5.02841 45.5955 4.73864 46.7773 4.73864C47.4592 4.73864 48.1325 4.85227 48.7972 5.07954C49.462 5.30682 50.0671 5.67614 50.6126 6.1875C51.158 6.69318 51.5927 7.36364 51.9165 8.19886C52.2404 9.03409 52.4023 10.0625 52.4023 11.2841V12.1364H42.3114V10.3977H50.3569C50.3569 9.65909 50.2092 9 49.9137 8.42045C49.6239 7.84091 49.2092 7.38352 48.6694 7.0483C48.1353 6.71307 47.5046 6.54545 46.7773 6.54545C45.9762 6.54545 45.283 6.74432 44.6978 7.14205C44.1183 7.53409 43.6722 8.04545 43.3597 8.67614C43.0472 9.30682 42.891 9.98295 42.891 10.7045V11.8636C42.891 12.8523 43.0614 13.6903 43.4023 14.3778C43.7489 15.0597 44.229 15.5795 44.8427 15.9375C45.4563 16.2898 46.1694 16.4659 46.9819 16.4659C47.5103 16.4659 47.9876 16.392 48.4137 16.2443C48.8455 16.0909 49.2177 15.8636 49.5302 15.5625C49.8427 15.2557 50.0842 14.875 50.2546 14.4205L52.1978 14.9659C51.9933 15.625 51.6495 16.2045 51.1665 16.7045C50.6836 17.1989 50.087 17.5852 49.3768 17.8636C48.6665 18.1364 47.8683 18.2727 46.9819 18.2727ZM59.3143 18.3068C58.4847 18.3068 57.7319 18.1506 57.0558 17.8381C56.3796 17.5199 55.8427 17.0625 55.445 16.4659C55.0472 15.8636 54.8484 15.1364 54.8484 14.2841C54.8484 13.5341 54.9961 12.9261 55.2915 12.4602C55.587 11.9886 55.9819 11.6193 56.4762 11.3523C56.9705 11.0852 57.516 10.8864 58.1126 10.7557C58.7148 10.6193 59.32 10.5114 59.9279 10.4318C60.7234 10.3295 61.3683 10.2528 61.8626 10.2017C62.3626 10.1449 62.7262 10.0511 62.9535 9.92045C63.1864 9.78977 63.3029 9.5625 63.3029 9.23864V9.17045C63.3029 8.32955 63.0728 7.67614 62.6126 7.21023C62.158 6.74432 61.4677 6.51136 60.5415 6.51136C59.5813 6.51136 58.8285 6.72159 58.283 7.14205C57.7376 7.5625 57.354 8.01136 57.1325 8.48864L55.2234 7.80682C55.5643 7.01136 56.0188 6.39205 56.587 5.94886C57.1609 5.5 57.7859 5.1875 58.462 5.01136C59.1438 4.82955 59.8143 4.73864 60.4734 4.73864C60.8938 4.73864 61.3768 4.78977 61.9222 4.89204C62.4734 4.98864 63.0046 5.19034 63.516 5.49716C64.033 5.80398 64.462 6.26705 64.8029 6.88636C65.1438 7.50568 65.3143 8.33523 65.3143 9.375V18H63.3029V16.2273H63.2006C63.0643 16.5114 62.837 16.8153 62.5188 17.1392C62.2006 17.4631 61.7773 17.7386 61.2489 17.9659C60.7205 18.1932 60.0756 18.3068 59.3143 18.3068ZM59.6211 16.5C60.4165 16.5 61.087 16.3438 61.6325 16.0312C62.1836 15.7188 62.5984 15.3153 62.8768 14.821C63.1609 14.3267 63.3029 13.8068 63.3029 13.2614V11.4205C63.2177 11.5227 63.0302 11.6165 62.7404 11.7017C62.4563 11.7812 62.1268 11.8523 61.7518 11.9148C61.3825 11.9716 61.0217 12.0227 60.6694 12.0682C60.3228 12.108 60.0415 12.142 59.8256 12.1705C59.3029 12.2386 58.8143 12.3494 58.3597 12.5028C57.9109 12.6506 57.5472 12.875 57.2688 13.1761C56.9961 13.4716 56.8597 13.875 56.8597 14.3864C56.8597 15.0852 57.1183 15.6136 57.6353 15.9716C58.158 16.3239 58.82 16.5 59.6211 16.5ZM68.9854 18V4.90909H70.9286V6.88636H71.065C71.3036 6.23864 71.7354 5.71307 72.3604 5.30966C72.9854 4.90625 73.69 4.70454 74.4741 4.70454C74.6218 4.70454 74.8065 4.70739 75.0281 4.71307C75.2496 4.71875 75.4173 4.72727 75.5309 4.73864V6.78409C75.4627 6.76705 75.3065 6.74148 75.0621 6.70739C74.8235 6.66761 74.5707 6.64773 74.3036 6.64773C73.6673 6.64773 73.0991 6.78125 72.5991 7.0483C72.1048 7.30966 71.7127 7.6733 71.4229 8.1392C71.1388 8.59943 70.9968 9.125 70.9968 9.71591V18H68.9854ZM82.8349 18.2727C81.6076 18.2727 80.5508 17.983 79.6644 17.4034C78.7781 16.8239 78.0962 16.0256 77.619 15.0085C77.1417 13.9915 76.9031 12.8295 76.9031 11.5227C76.9031 10.1932 77.1474 9.01989 77.636 8.00284C78.1303 6.98011 78.8178 6.18182 79.6985 5.60795C80.5849 5.02841 81.619 4.73864 82.8008 4.73864C83.7212 4.73864 84.5508 4.90909 85.2894 5.25C86.0281 5.59091 86.6332 6.06818 87.1048 6.68182C87.5763 7.29545 87.869 8.01136 87.9826 8.82955H85.9712C85.8178 8.23295 85.4769 7.70455 84.9485 7.24432C84.4258 6.77841 83.7212 6.54545 82.8349 6.54545C82.0508 6.54545 81.3633 6.75 80.7724 7.15909C80.1871 7.5625 79.7298 8.13352 79.4002 8.87216C79.0763 9.60511 78.9144 10.4659 78.9144 11.4545C78.9144 12.4659 79.0735 13.3466 79.3917 14.0966C79.7156 14.8466 80.1701 15.429 80.7553 15.8438C81.3462 16.2585 82.0394 16.4659 82.8349 16.4659C83.3576 16.4659 83.832 16.375 84.2582 16.1932C84.6843 16.0114 85.0451 15.75 85.3406 15.4091C85.636 15.0682 85.8462 14.6591 85.9712 14.1818H87.9826C87.869 14.9545 87.5877 15.6506 87.1388 16.2699C86.6957 16.8835 86.1076 17.3722 85.3746 17.7358C84.6474 18.0938 83.8008 18.2727 82.8349 18.2727ZM92.9343 10.125V18H90.9229V0.545454H92.9343V6.95455H93.1048C93.4116 6.27841 93.8718 5.74148 94.4854 5.34375C95.1048 4.94034 95.9286 4.73864 96.957 4.73864C97.8491 4.73864 98.6303 4.91761 99.3008 5.27557C99.9712 5.62784 100.491 6.17045 100.86 6.90341C101.235 7.63068 101.423 8.55682 101.423 9.68182V18H99.4116V9.81818C99.4116 8.77841 99.1417 7.97443 98.6019 7.40625C98.0678 6.83239 97.3263 6.54545 96.3775 6.54545C95.7184 6.54545 95.1275 6.68466 94.6048 6.96307C94.0877 7.24148 93.6786 7.64773 93.3775 8.18182C93.082 8.71591 92.9343 9.36364 92.9343 10.125ZM111.853 18V4.90909H113.864V18H111.853ZM112.875 2.72727C112.483 2.72727 112.145 2.59375 111.861 2.3267C111.583 2.05966 111.444 1.73864 111.444 1.36364C111.444 0.988636 111.583 0.667614 111.861 0.400568C112.145 0.133523 112.483 0 112.875 0C113.267 0 113.603 0.133523 113.881 0.400568C114.165 0.667614 114.307 0.988636 114.307 1.36364C114.307 1.73864 114.165 2.05966 113.881 2.3267C113.603 2.59375 113.267 2.72727 112.875 2.72727ZM119.559 10.125V18H117.548V4.90909H119.491V6.95455H119.662C119.968 6.28977 120.434 5.75568 121.059 5.35227C121.684 4.94318 122.491 4.73864 123.48 4.73864C124.366 4.73864 125.142 4.92045 125.806 5.28409C126.471 5.64205 126.988 6.1875 127.358 6.92045C127.727 7.64773 127.912 8.56818 127.912 9.68182V18H125.9V9.81818C125.9 8.78977 125.633 7.98864 125.099 7.41477C124.565 6.83523 123.832 6.54545 122.9 6.54545C122.258 6.54545 121.684 6.68466 121.179 6.96307C120.679 7.24148 120.284 7.64773 119.994 8.18182C119.704 8.71591 119.559 9.36364 119.559 10.125ZM139.326 18H137.11L143.519 0.545454H145.701L152.11 18H149.894L144.678 3.30682H144.542L139.326 18ZM140.144 11.1818H149.076V13.0568H140.144V11.1818ZM156.942 0.545454V18H154.828V0.545454H156.942Z" fill="black"></path>
</g>
</svg>
