<svg width="385" height="280" viewBox="0 0 385 280" fill="none" xmlns="http://www.w3.org/2000/svg">
<path d="M181.711 89.2204C183.117 89.9456 184.08 90.7813 184.604 92.2396C184.493 93.695 184.247 94.3779 183.23 95.4454C181.173 97.1313 178.874 98.0785 176.384 99.0001C174.569 99.8178 173.902 100.49 173.169 102.308C173.011 102.824 172.86 103.342 172.714 103.861C172.635 104.134 172.556 104.407 172.475 104.688C170.981 109.606 170.981 109.606 171.821 114.479C173.735 115.593 175.252 115.777 177.461 115.573C178.222 115.227 178.976 114.864 179.717 114.479C179.704 114.131 179.691 113.783 179.677 113.424C179.561 108.025 180.604 104.877 184.228 100.625C184.497 100.282 184.765 99.9389 185.041 99.5854C185.383 99.1977 185.383 99.1977 185.732 98.8021C185.981 98.8021 186.229 98.8021 186.484 98.8021C186.484 98.5615 186.484 98.3209 186.484 98.0729C189.732 94.9856 194.215 92.9655 198.773 92.9702C201.176 93.0608 203.184 93.1781 205.283 94.4271C206.3 95.9062 206.28 97.0649 206.035 98.8021C205.382 100.447 204.242 101.881 203.027 103.177C202.779 103.177 202.531 103.177 202.275 103.177C202.275 103.418 202.275 103.658 202.275 103.906C201.543 104.475 200.818 104.992 200.043 105.501C199.819 105.649 199.596 105.797 199.365 105.949C196.073 108.081 192.752 109.375 188.74 109.375C188.049 110.507 187.78 111.342 187.988 112.656C188.863 113.515 189.406 113.738 190.648 113.908C196.303 113.914 201.446 112.454 206.74 110.611C207.709 110.278 208.563 110.055 209.583 109.871C210.814 109.623 211.485 109.462 212.427 108.646C213.098 107.072 213.314 105.38 213.594 103.708C214.013 101.357 215.227 99.7324 216.938 98.0729C218.066 97.9818 218.066 97.9818 219.194 98.0729C219.567 98.4339 219.567 98.4339 219.946 98.8021C219.737 100.463 219.737 100.463 219.194 100.99C219.116 101.641 219.056 102.295 219.006 102.949C218.919 104.096 218.819 104.999 218.442 106.094C219.807 105.973 221.172 105.853 222.578 105.729C222.201 107.56 222.053 107.867 220.698 109.01C223.156 109.226 224.822 107.834 226.714 106.458C227.422 105.767 227.979 105.049 228.594 104.271C229.024 103.897 229.463 103.533 229.91 103.177C230.775 102.483 231.512 101.795 232.212 100.944C233.063 99.9454 233.936 99.2288 234.985 98.4375C235.109 98.1969 235.233 97.9563 235.361 97.7084C235.609 97.7084 235.858 97.7084 236.113 97.7084C236.237 97.3474 236.361 96.9865 236.489 96.6146C237.617 95.8854 237.617 95.8854 238.816 96.0222C239.339 96.135 239.339 96.135 239.873 96.25C240.035 98.4207 240.044 99.9834 238.777 101.817C238.064 102.92 237.69 104.142 237.241 105.365C237.117 105.605 236.993 105.846 236.865 106.094C237.796 105.913 237.796 105.913 238.745 105.729C238.885 105.098 238.885 105.098 239.027 104.453C240.082 100.404 242.304 97.8312 245.959 95.696C249.02 94.1336 252.648 94.0475 256.04 94.4271C257.318 95.0028 258.035 95.7435 258.672 96.9792C258.93 98.7677 258.664 99.7234 257.591 101.149C256.983 101.9 256.983 101.9 256.416 102.448C256.168 102.448 255.92 102.448 255.664 102.448C255.593 102.651 255.522 102.853 255.448 103.062C254.675 104.28 253.547 104.959 252.351 105.752C252.119 105.91 251.887 106.068 251.648 106.231C248.081 108.646 248.081 108.646 246.641 108.646C246.641 108.886 246.641 109.127 246.641 109.375C245.524 109.736 245.524 109.736 244.385 110.104C244.615 111.404 244.994 112.533 245.513 113.75C249.225 114.465 252.485 113.669 256.04 112.656C256.311 112.594 256.582 112.532 256.861 112.467C258.009 112.152 258.804 111.922 259.477 110.93C259.812 110.139 260.063 109.357 260.293 108.532C260.463 107.986 260.634 107.441 260.806 106.896C260.925 106.506 260.925 106.506 261.048 106.109C261.403 105.076 261.898 104.132 262.432 103.177C262.68 103.177 262.928 103.177 263.184 103.177C263.322 102.852 263.322 102.852 263.464 102.521C264.329 101.05 265.788 100.278 267.319 99.5313C268.453 99.2369 269.53 99.0513 270.703 99.1667C271.455 99.8959 271.455 99.8959 271.528 100.605C271.504 101.341 271.48 102.077 271.455 102.813C271.703 102.813 271.951 102.813 272.207 102.813C272.308 102.602 272.409 102.391 272.512 102.175C272.97 101.334 273.449 100.618 274.087 99.8959C274.335 99.8959 274.583 99.8959 274.839 99.8959C274.839 99.6552 274.839 99.4146 274.839 99.1667C275.087 99.1667 275.335 99.1667 275.591 99.1667C275.715 98.8058 275.839 98.4448 275.967 98.0729C276.215 98.0729 276.463 98.0729 276.719 98.0729C276.719 97.8323 276.719 97.5917 276.719 97.3438C277.463 97.1633 277.463 97.1633 278.223 96.9792C278.223 96.7386 278.223 96.4979 278.223 96.25C281.492 94.4478 281.492 94.4478 283.486 94.7917C284.501 95.4479 285.194 95.916 285.742 96.9792C286.066 100.349 285.561 103.445 284.806 106.72C284.326 108.816 284.037 110.881 283.862 113.021C287.421 111.942 290.854 110.802 294.204 109.209C296.285 108.235 298.413 107.54 300.617 106.874C301.93 106.472 301.93 106.472 303.235 105.9C304.491 105.385 305.683 105.03 307.008 104.727C307.412 104.631 307.816 104.535 308.232 104.436C309.491 104.262 310.45 104.369 311.685 104.635C311.874 106.567 311.446 107.518 310.181 109.01C309.566 109.394 308.94 109.761 308.301 110.104C308.053 110.465 307.804 110.826 307.549 111.198C306.7 111.681 306.7 111.681 305.622 112.178C304.286 112.801 302.953 113.422 301.639 114.086C295.523 117.162 288.8 120.423 281.69 119.491C279.66 118.83 278.252 117.256 277.095 115.573C276.695 113.521 276.74 111.921 277.165 109.854C277.216 109.605 277.267 109.356 277.319 109.1C277.829 106.71 278.546 104.396 279.351 102.083C279.118 102.264 278.885 102.444 278.646 102.63C277.847 103.177 277.847 103.177 277.095 103.177C276.971 103.538 276.847 103.899 276.719 104.271C276.1 104.886 275.473 105.494 274.839 106.094C274.591 106.455 274.343 106.816 274.087 107.188C273.839 107.188 273.591 107.188 273.335 107.188C273.239 107.453 273.144 107.719 273.046 107.992C272.554 109.075 271.981 109.816 271.197 110.719C269.475 112.752 267.934 114.882 266.415 117.06C264.784 119.354 264.784 119.354 263.56 119.948C261.247 120.103 261.247 120.103 260.176 119.583C260.176 119.343 260.176 119.102 260.176 118.854C259.928 118.854 259.679 118.854 259.424 118.854C259.176 118.012 258.928 117.17 258.672 116.302C258.253 116.52 257.834 116.738 257.403 116.963C252.999 119.094 248.109 119.978 243.379 118.454C240.899 117.52 239.435 116.085 238.369 113.75C238.252 112.474 238.252 112.474 238.369 111.563C238.142 111.514 237.915 111.466 237.682 111.416C237.381 111.351 237.081 111.287 236.771 111.221C236.475 111.157 236.178 111.094 235.872 111.028C235.302 110.903 234.734 110.77 234.169 110.627C233.477 110.441 233.477 110.441 232.729 110.469C232.585 110.791 232.585 110.791 232.437 111.12C230.835 113.934 227.404 115.497 224.505 116.781C221.435 117.435 218.987 117.225 216.226 115.735C215.242 115.08 214.565 114.364 213.931 113.385C212.233 114.004 210.635 114.78 209.019 115.573C208.754 115.703 208.488 115.832 208.214 115.966C207.956 116.092 207.698 116.218 207.432 116.348C207.187 116.467 206.941 116.586 206.688 116.709C206.177 116.961 205.671 117.222 205.167 117.487C204.531 117.76 204.531 117.76 203.403 117.76C203.403 118.001 203.403 118.242 203.403 118.49C197.137 120.9 191.651 122.818 184.98 120.677C183.487 119.976 182.345 118.934 181.221 117.76C180.998 117.888 180.776 118.015 180.547 118.146C180.249 118.312 179.952 118.478 179.646 118.649C179.354 118.814 179.062 118.979 178.761 119.149C176.503 120.211 173.903 120.185 171.445 119.948C170.318 119.566 169.462 119.101 168.437 118.49C168.437 118.249 168.437 118.008 168.437 117.76C168.091 117.628 168.091 117.628 167.738 117.493C166.464 116.762 166.206 115.8 165.718 114.486C164.616 110.276 165.794 106.157 166.934 102.083C166.353 102.172 166.353 102.172 165.762 102.263C164.485 102.425 163.284 102.497 161.999 102.494C161.439 102.495 161.439 102.495 160.868 102.496C159.824 102.449 158.912 102.376 157.91 102.083C157.049 100.831 157.091 100.266 157.158 98.8021C159.853 97.9754 162.607 97.59 165.393 97.1615C165.955 97.0713 165.955 97.0713 166.528 96.9792C166.868 96.9266 167.207 96.8739 167.557 96.8197C168.532 96.6446 168.532 96.6446 169.565 95.8854C169.904 95.2891 170.243 94.6924 170.577 94.0939C171.541 92.6049 172.767 91.2644 174.077 90.0521C174.325 90.0521 174.573 90.0521 174.829 90.0521C174.829 89.8115 174.829 89.5709 174.829 89.3229C176.949 88.6379 179.568 88.5724 181.711 89.2204ZM178.213 92.9688C177.612 93.6736 177.178 94.3558 176.709 95.1563C176.965 95.1036 177.221 95.051 177.484 94.9968C178.589 94.7917 178.589 94.7917 179.858 94.6778C181.487 94.3782 182.46 93.8231 183.853 92.9688C183.728 92.6078 183.604 92.2469 183.477 91.875C181.232 91.3419 179.952 91.554 178.213 92.9688ZM250.024 96.6146C250.024 96.8552 250.024 97.0959 250.024 97.3438C249.761 97.4265 249.497 97.5092 249.225 97.5944C247.31 98.4423 246.012 99.4137 245.184 101.286C245.044 101.669 244.905 102.053 244.761 102.448C248.296 101.764 251.571 99.2237 254.536 97.3438C253.642 96.3583 253.642 96.3583 252.28 96.1589C251.134 96.2081 251.134 96.2081 250.024 96.6146ZM193.628 98.4375C193.628 98.6782 193.628 98.9188 193.628 99.1667C193.403 99.272 193.178 99.3772 192.946 99.4857C192.051 99.9131 192.051 99.9131 190.996 100.625C190.996 100.866 190.996 101.106 190.996 101.354C190.624 101.475 190.252 101.595 189.868 101.719C189.744 102.08 189.62 102.441 189.492 102.813C193.606 102.301 197.77 100.551 200.771 97.7084C200.771 97.4677 200.771 97.2271 200.771 96.9792C198.007 96.7777 196.067 97.1576 193.628 98.4375ZM269.199 99.8959C267.616 102.172 267.114 104.516 266.567 107.188C267.064 106.947 267.56 106.706 268.071 106.458C268.071 106.097 268.071 105.736 268.071 105.365C268.319 105.365 268.568 105.365 268.823 105.365C269.44 104.611 269.44 104.611 270.022 103.656C270.229 103.338 270.436 103.021 270.649 102.694C271.146 101.567 271.073 101.047 270.703 99.8959C270.207 99.8959 269.711 99.8959 269.199 99.8959ZM187.612 108.281C187.988 109.01 187.988 109.01 187.988 109.01L187.612 108.281Z" fill="black"></path>
<path d="M151.519 69.2708C152.935 70.4041 153.942 71.553 154.503 73.2584C154.514 73.8111 154.514 73.8111 154.526 74.375C154.553 74.6095 154.58 74.844 154.607 75.0856C154.811 77.7667 153.84 80.6117 152.083 82.702C151.275 83.3078 150.629 83.2028 149.639 83.125C149.357 82.5097 149.357 82.5097 149.263 81.6666C149.968 80.7324 149.968 80.7324 150.767 79.8437C151.161 78.6955 151.181 77.8793 151.166 76.6764C151.163 76.3141 151.159 75.9517 151.156 75.5784C151.151 75.3016 151.147 75.0248 151.143 74.7396C150.912 74.6277 150.681 74.5159 150.443 74.4006C149.893 74.1338 149.343 73.867 148.793 73.6002C145.781 72.6709 142.589 73.5125 139.784 74.7381C138.909 75.1937 138.072 75.6859 137.231 76.1979C137.028 76.3194 136.825 76.441 136.615 76.5662C134.031 78.1131 131.613 79.7092 129.336 81.6666C129.088 81.6666 128.84 81.6666 128.584 81.6666C128.499 81.8546 128.413 82.0426 128.325 82.2363C127.884 83.0307 127.41 83.6669 126.845 84.3782C126.271 85.1625 125.943 85.7048 125.647 86.6341C126.089 87.8878 126.8 88.2812 127.976 88.9127C131.342 90.3157 135.11 90.5318 138.712 90.9407C149.785 92.2096 149.785 92.2096 152.478 95.5051C154.349 98.2599 154.61 101.188 153.977 104.429C152.619 108.773 149.54 112.106 146.255 115.208C145.929 115.539 145.603 115.87 145.268 116.211C144.375 117.031 144.375 117.031 143.247 117.396C143.247 117.636 143.247 117.877 143.247 118.125C142.645 118.575 142.645 118.575 141.803 119.076C141.496 119.261 141.189 119.447 140.873 119.637C140.548 119.83 140.222 120.023 139.887 120.221C139.256 120.599 138.626 120.977 137.997 121.355C137.681 121.544 137.366 121.732 137.041 121.927C136.132 122.482 135.243 123.06 134.354 123.646C128.375 127.534 120.347 130.377 113.169 130.885C112.801 130.911 112.801 130.911 112.426 130.938C107.289 131.251 102.26 130.817 98.2004 127.445C96.7807 126.12 95.548 124.679 95.4569 122.701C95.5015 122.431 95.5461 122.162 95.592 121.885C95.6531 121.477 95.6531 121.477 95.7154 121.06C96.0798 119.342 96.0798 119.342 96.836 118.793C98.7983 117.76 98.7983 117.76 99.6338 117.76C99.6338 117.52 99.6338 117.279 99.6338 117.031C99.9141 116.905 99.9141 116.905 100.2 116.776C103.4 115.332 106.59 113.884 109.691 112.246C113.401 110.291 117.206 108.541 121.155 107.088C121.814 106.872 121.814 106.872 122.192 106.458C122.819 106.443 123.446 106.443 124.072 106.458C124.072 107.06 124.072 107.661 124.072 108.281C123.736 108.455 123.736 108.455 123.392 108.632C120.299 110.245 117.278 111.967 114.259 113.706C113.675 114.04 113.087 114.368 112.498 114.694C110.215 115.969 108.121 117.454 106.025 118.998C104.223 120.312 104.223 120.312 103.394 120.312C103.394 120.553 103.394 120.794 103.394 121.042C102.897 121.162 102.401 121.282 101.89 121.406C102.158 122.582 102.158 122.582 103.276 123.092C110.469 125.988 119.137 122.821 125.952 120.312C126.408 120.149 126.863 119.986 127.333 119.818C129.303 119.103 131.186 118.332 133.06 117.409C134.358 116.787 135.691 116.243 137.02 115.687C139.741 114.535 142.371 113.261 144.979 111.884C146.023 111.333 147.004 110.834 148.135 110.469C148.135 110.228 148.135 109.987 148.135 109.74C148.383 109.74 148.631 109.74 148.887 109.74C149.026 109.345 149.026 109.345 149.169 108.942C149.639 107.917 149.639 107.917 150.367 107.119C151.652 105.42 152.365 103.567 152.185 101.44C151.926 100.157 151.569 98.9474 151.143 97.7083C150.443 97.3015 150.443 97.3015 149.639 96.9791C149.212 96.7385 148.786 96.4979 148.346 96.25C144.331 94.313 139.023 94.516 134.631 94.1793C130.298 93.7998 125.904 92.9703 122.568 90.0521C120.933 87.9652 121.159 85.6335 121.44 83.125C121.831 82.0894 122.249 81.4578 122.944 80.5729C123.192 80.5729 123.441 80.5729 123.696 80.5729C123.782 80.3699 123.867 80.1668 123.955 79.9577C124.589 78.8734 125.376 78.1229 126.328 77.2916C126.576 77.2916 126.824 77.2916 127.08 77.2916C127.08 77.051 127.08 76.8104 127.08 76.5625C132.785 71.2738 143.591 65.3425 151.519 69.2708Z" fill="black"></path>
<path d="M189.304 151.211C190.244 151.302 190.244 151.302 190.996 152.031C191.376 155.421 190.761 158.797 190.15 162.126C190.064 162.611 189.978 163.097 189.892 163.583C189.389 166.392 188.814 169.175 188.132 171.948C187.553 174.359 187.211 176.794 186.908 179.251C186.671 181.055 186.27 182.664 185.641 184.375C185.241 185.547 184.988 186.737 184.722 187.942C183.894 191.688 182.693 194.955 180.845 198.333C180.721 198.574 180.597 198.815 180.469 199.062C180.221 199.062 179.972 199.062 179.717 199.062C179.688 199.33 179.66 199.597 179.63 199.873C178.977 202.16 176.448 203.653 174.447 204.839C171.357 206.406 167.789 207.802 164.262 206.875C162.882 206.412 161.872 206.007 160.918 204.896C160.918 204.655 160.918 204.415 160.918 204.167C160.67 204.167 160.422 204.167 160.166 204.167C157.707 200.988 157.939 196.693 158.487 192.949C158.965 190.572 159.524 188.673 160.918 186.667C161.163 186.227 161.406 185.787 161.646 185.345C162.718 183.644 163.873 182.326 165.806 181.562C165.806 181.322 165.806 181.081 165.806 180.833C173.491 176.39 173.491 176.39 177.461 175.729C177.461 175.489 177.461 175.248 177.461 175C179.074 174.519 180.687 174.038 182.349 173.542C182.387 173.038 182.426 172.534 182.466 172.015C182.665 170.029 183.117 168.139 183.619 166.207C183.905 165.098 183.905 165.098 183.853 163.698C183.457 164.036 183.457 164.036 183.054 164.382C181.116 165.77 179.255 166.067 176.888 166.029C175.321 165.787 174.498 165.078 173.325 164.062C172.117 161.718 172.969 158.411 173.72 156.027C174.077 155.312 174.077 155.312 175.205 154.583C176.216 154.538 176.216 154.538 177.085 154.583C177.271 155.125 177.271 155.125 177.461 155.677C177.1 156.23 177.1 156.23 176.732 156.794C175.68 158.429 175.817 160.005 175.957 161.875C179.048 162.058 181.123 161.52 183.571 159.596C184.903 158.406 185.52 157.359 186.108 155.677C186.363 155.03 186.621 154.384 186.884 153.74C187.005 153.433 187.125 153.126 187.25 152.81C187.756 151.722 188.054 151.332 189.304 151.211ZM180.234 176.823C179.815 177.064 179.396 177.304 178.965 177.552C178.965 177.793 178.965 178.033 178.965 178.281C178.692 178.321 178.42 178.36 178.139 178.401C175.435 179.029 172.863 181.01 170.693 182.656C170.693 182.897 170.693 183.138 170.693 183.385C170.453 183.483 170.213 183.581 169.965 183.682C169.065 184.073 169.065 184.073 168.813 185.208C168.585 185.316 168.357 185.425 168.122 185.536C166.012 186.579 164.458 189.507 163.736 191.654C163.084 194.611 162.577 198.411 163.926 201.25C164.965 202.306 165.581 202.674 167.078 202.902C171.199 202.869 174.859 202.376 177.944 199.483C181.863 194.713 181.733 187.589 181.893 181.805C181.951 179.889 182.122 177.997 182.349 176.094C181.423 176.094 181.025 176.368 180.234 176.823Z" fill="black"></path>
<path d="M134.412 135.83C136.981 135.895 139.103 136.697 140.924 138.485C143.265 141.542 144.238 145.714 144.375 149.479C144.385 149.707 144.394 149.934 144.404 150.168C144.605 155.487 144.246 160.467 141.367 165.156C141.836 165.148 142.305 165.139 142.787 165.131C146.007 165.091 149.187 165.107 152.388 165.475C152.641 165.504 152.894 165.532 153.155 165.562C154.797 165.77 156.322 166.17 157.91 166.615C159.182 166.882 160.461 167.113 161.74 167.344C162.089 167.408 162.438 167.471 162.798 167.537C164.666 167.877 166.536 168.195 168.414 168.483C169.861 168.708 171.201 169.014 172.573 169.531C172.573 170.013 172.573 170.494 172.573 170.99C170.672 171.308 168.907 171.365 166.981 171.24C166.68 171.223 166.38 171.206 166.071 171.189C164.04 171.073 162.011 170.937 159.981 170.802C154.629 170.45 149.294 170.186 143.929 170.169C143.44 170.166 142.951 170.163 142.448 170.159C141.993 170.161 141.538 170.162 141.069 170.164C140.672 170.164 140.274 170.165 139.864 170.166C138.624 170.27 137.629 170.53 136.479 170.99C135.964 171.586 135.464 172.195 134.976 172.812C134.331 173.298 133.664 173.736 132.99 174.181C132.263 174.667 132.263 174.667 131.427 175.524C128.754 178.117 125.857 179.733 122.075 180.286C120.711 180.04 119.887 179.478 118.809 178.646C117.88 177.295 117.888 176.201 118.057 174.635C118.433 173.724 118.433 173.724 118.809 173.177C119.057 173.177 119.305 173.177 119.561 173.177C119.647 172.906 119.734 172.635 119.823 172.355C121.191 169.555 125.172 167.904 127.974 166.707C130.916 165.719 134.119 165.156 137.231 165.156C137.324 164.901 137.418 164.645 137.513 164.382C137.983 163.333 137.983 163.333 138.735 162.262C141.657 157.924 140.804 151.437 139.863 146.562C139.261 144.317 138.292 140.874 136.17 139.583C135.938 139.502 135.707 139.422 135.469 139.339C134.853 139.125 134.853 139.125 134.224 138.906C134.224 139.267 134.224 139.628 134.224 140C133.603 140 132.983 140 132.344 140C132.26 139.469 132.183 138.937 132.109 138.405C132.065 138.109 132.022 137.813 131.977 137.508C131.972 137.117 131.972 137.117 131.968 136.719C132.877 135.837 133.159 135.863 134.412 135.83ZM126.375 173.04C126.104 173.161 125.833 173.282 125.554 173.406C123.71 174.279 122.804 175.073 121.816 176.823C123.796 177.006 124.818 176.509 126.328 175.365C126.619 175.158 126.91 174.951 127.209 174.738C129.041 173.523 129.041 173.523 130.088 171.719C128.742 171.719 127.567 172.478 126.375 173.04Z" fill="black"></path>
<path d="M224.834 153.125C226.055 154.276 226.508 155.156 226.714 156.771C226.704 157.966 226.629 159.155 226.549 160.348C226.53 160.67 226.51 160.993 226.49 161.325C226.441 162.116 226.39 162.907 226.338 163.698C226.485 163.531 226.632 163.364 226.784 163.193C232.789 156.396 232.789 156.396 234.609 155.677C234.609 155.436 234.609 155.196 234.609 154.948C236.086 153.993 237.405 154.113 239.121 154.219C240.249 154.948 240.249 154.948 240.625 156.042C240.657 157.038 240.669 158.024 240.662 159.02C240.661 159.309 240.661 159.599 240.66 159.898C240.658 160.823 240.653 161.748 240.648 162.673C240.647 163.3 240.645 163.927 240.643 164.555C240.639 166.092 240.633 167.629 240.625 169.167C240.873 169.167 241.121 169.167 241.377 169.167C241.377 169.407 241.377 169.648 241.377 169.896C244.446 170.106 247.166 169.698 250.129 169.007C251.832 168.61 253.501 168.304 255.241 168.096C257.37 167.811 259.154 167.142 261.094 166.259C262.056 165.885 262.056 165.885 263.56 165.885C263.795 166.546 263.795 166.546 263.936 167.344C262.518 169.406 259.545 170.474 257.097 171.058C256.749 171.156 256.4 171.253 256.04 171.354C255.916 171.715 255.792 172.076 255.664 172.448C255.043 172.767 255.043 172.767 254.237 173.02C253.94 173.114 253.644 173.208 253.339 173.304C253.021 173.397 252.702 173.491 252.374 173.587C252.05 173.683 251.725 173.779 251.391 173.878C246.757 175.194 242.842 175.329 238.294 173.59C236.927 172.756 236.534 171.349 236.113 169.896C235.568 165.809 236.576 161.534 237.241 157.5C234.367 159.428 232.455 161.645 230.474 164.427C230.26 164.727 230.046 165.027 229.826 165.336C228.937 166.61 228.089 167.905 227.254 169.212C227.102 169.447 226.95 169.681 226.793 169.923C226.484 170.399 226.181 170.879 225.883 171.361C225.134 172.497 224.659 173.108 223.33 173.564C222.128 173.54 221.376 173.367 220.322 172.812C219.063 170.37 220.342 166.803 220.863 164.29C220.949 163.858 221.036 163.425 221.125 162.979C221.771 159.795 221.771 159.795 222.202 158.958C221.458 158.958 220.713 158.958 219.946 158.958C219.899 156.862 219.899 156.862 220.322 156.042C220.57 156.042 220.819 156.042 221.074 156.042C221.105 155.763 221.136 155.485 221.168 155.199C221.45 154.219 221.45 154.219 222.108 153.558C223.151 153.024 223.673 152.9 224.834 153.125Z" fill="black"></path>
<path d="M276.711 135.015C278.613 135.629 279.68 137.415 280.587 139.05C281.191 140.319 281.66 141.554 281.982 142.917C282.393 142.676 282.804 142.435 283.228 142.187C286.173 140.792 288.866 141.282 291.899 142.233C293.941 143 295.23 143.574 296.27 145.469C296.167 146.128 296.167 146.128 295.894 146.927C295.781 147.265 295.668 147.604 295.551 147.952C292.953 154.922 292.953 154.922 290.161 156.527C289.944 156.608 289.726 156.688 289.502 156.771C289.502 157.011 289.502 157.252 289.502 157.5C289.254 157.5 289.006 157.5 288.75 157.5C288.657 157.718 288.564 157.936 288.468 158.161C287.93 159.074 287.408 159.498 286.494 160.052C286.246 160.052 285.998 160.052 285.742 160.052C285.556 160.593 285.556 160.593 285.366 161.146C284.462 161.68 284.462 161.68 283.298 162.217C282.684 162.502 282.684 162.502 282.057 162.792C281.66 162.971 281.263 163.149 280.854 163.333C280.547 163.474 280.239 163.615 279.922 163.761C275.16 165.885 275.16 165.885 272.959 165.885C272.959 166.126 272.959 166.367 272.959 166.615C271.973 166.929 270.986 167.24 269.998 167.549C269.577 167.684 269.577 167.684 269.148 167.822C267.029 168.479 267.029 168.479 266.191 168.073C266.191 167.471 266.191 166.87 266.191 166.25C271.002 163.619 271.002 163.619 273.643 162.849C276.001 162.144 278.262 161.172 280.452 160.076C281.022 159.791 281.597 159.514 282.173 159.242C283.603 158.565 284.995 157.899 286.306 157.021C287.246 156.406 287.246 156.406 287.998 156.406C288.139 156.103 288.139 156.103 288.283 155.794C288.831 154.802 289.498 153.97 290.207 153.079C291.566 151.288 292.728 149.478 293.262 147.292C293.138 146.931 293.014 146.57 292.886 146.198C290.142 145.166 287.61 145.149 284.892 146.224C284.161 146.561 284.161 146.561 283.463 147.337C282.212 148.511 280.642 148.385 278.975 148.385C278.471 148.497 277.969 148.617 277.471 148.75C277.471 149.231 277.471 149.712 277.471 150.208C276.85 150.208 276.23 150.208 275.591 150.208C275.309 149.411 275.309 149.411 275.215 148.385C275.896 147.428 275.896 147.428 276.719 146.562C277.84 144.932 277.609 143.37 277.471 141.458C277.233 140.181 277.233 140.181 276.719 139.271C276.347 139.151 275.974 139.03 275.591 138.906C274.405 141.534 273.949 144.018 273.969 146.859C273.97 147.289 273.97 147.289 273.971 147.727C274.005 149.728 274.321 151.48 274.961 153.39C275.327 154.583 275.35 155.535 275.215 156.771C274.463 157.5 274.463 157.5 273.1 157.546C272.681 157.531 272.262 157.515 271.831 157.5C270.181 153.995 269.392 150.889 269.458 147.018C269.456 146.653 269.455 146.288 269.454 145.912C269.468 144.042 269.556 142.472 270.327 140.729C270.461 140.417 270.595 140.104 270.732 139.782C271.997 137.204 273.385 134.793 276.711 135.015Z" fill="#FFA3A3"></path>
<path d="M198.516 154.583C201.053 154.902 201.053 154.902 201.899 155.312C201.837 155.749 201.775 156.185 201.711 156.634C201.546 157.903 201.49 159.136 201.523 160.417C201.705 160.206 201.886 159.996 202.073 159.779C202.31 159.508 202.548 159.237 202.792 158.958C203.146 158.552 203.146 158.552 203.506 158.138C203.72 157.927 203.935 157.717 204.155 157.5C204.403 157.5 204.652 157.5 204.907 157.5C204.907 157.259 204.907 157.019 204.907 156.771C206.217 155.498 207.487 154.675 209.301 154.287C210.694 154.618 211.299 155.035 212.052 156.224C212.885 158.251 212.999 160.446 213.179 162.604C213.211 162.975 213.211 162.975 213.243 163.353C213.364 164.804 213.467 166.255 213.555 167.708C213.899 167.651 214.243 167.595 214.597 167.536C215.268 167.43 215.268 167.43 215.952 167.321C216.396 167.249 216.841 167.177 217.3 167.103C218.442 166.979 218.442 166.979 219.194 167.344C219.288 168.187 219.288 168.187 219.194 169.167C218.138 170.191 216.773 170.735 215.435 171.354C215.435 171.474 215.435 171.595 215.435 171.719C213.144 172.25 211.179 171.993 209.043 170.99C207.716 169.607 207.527 168.576 207.571 166.716C207.605 166.188 207.641 165.661 207.68 165.133C207.698 164.859 207.717 164.585 207.736 164.303C207.884 162.153 208.067 160.008 208.291 157.865C207.852 158.29 207.426 158.727 206.999 159.163C206.035 160.052 206.035 160.052 205.283 160.052C205.189 160.312 205.095 160.573 204.998 160.841C204.485 161.978 203.848 162.847 203.074 163.835C201.559 165.82 200.281 167.666 199.432 170.01C198.892 171.354 198.892 171.354 197.764 172.083C195.675 171.881 195.675 171.881 195.132 171.354C194.859 168.441 195.381 165.543 195.837 162.673C195.902 162.235 195.968 161.797 196.035 161.346C196.436 158.762 196.777 156.653 198.516 154.583Z" fill="black"></path>
</svg>
